<svg xmlns="http://www.w3.org/2000/svg" version="1.1" xmlns:xlink="http://www.w3.org/1999/xlink" xmlns:svgjs="http://svgjs.dev/svgjs" viewBox="0 0 800 400"><path d="M7.168458938598633,140.3225860595703C7.168458938598633,140.3225860595703,7.467144727706909,141.06930033365884,7.168458938598633,140.3225860595703C6.8697731494903564,139.57587178548178,-4.032257874806723,122.84946950276692,5.376344203948975,135.84230041503906C14.784946282704672,148.8351313273112,42.712066888809204,216.48745727539062,63.62007141113281,218.27957153320312C84.52807593345642,220.07168579101562,110.06570943196614,147.1923573811849,130.82437133789062,146.59498596191406C151.5830332438151,145.99761454264322,166.51732381184897,214.69534301757812,188.1720428466797,214.69534301757812C209.8267618815104,214.69534301757812,239.6953353881836,144.80287170410156,260.752685546875,146.59498596191406C281.8100357055664,148.38710021972656,291.3679962158203,227.24014282226562,314.5161437988281,225.44802856445312C337.66429138183594,223.65591430664062,374.70130920410156,139.42652893066406,399.6415710449219,135.84230041503906C424.5818328857422,132.25807189941406,444.29511006673175,203.1959431966146,464.15771484375,203.94265747070312C484.02031962076825,204.68937174479166,496.71445719401044,137.18638610839844,518.8171997070312,140.3225860595703C540.9199422200521,143.4587860107422,574.8207600911459,224.10394287109375,596.774169921875,222.75985717773438C618.7275797526041,221.415771484375,631.5711059570312,134.9462432861328,650.5376586914062,132.25807189941406C669.5042114257812,129.5699005126953,692.65234375,207.97491582234701,710.573486328125,206.63082885742188C728.49462890625,205.28674189249674,743.5782572428385,130.46595255533853,758.0645141601562,124.19355010986328C772.550771077474,117.92114766438802,790.9199422200521,161.52927017211914,797.4910278320312,168.9964141845703" fill="none" stroke-width="25" stroke="url(&quot;#SvgjsLinearGradient1001&quot;)" stroke-linecap="round"></path><defs><linearGradient id="SvgjsLinearGradient1001"><stop stop-color="hsl(212, 84%, 50%)" offset="0"></stop><stop stop-color="hsl(230, 76%, 33%)" offset="1"></stop></linearGradient></defs></svg>